<svg width="313" height="148" viewBox="0 0 313 148" fill="none" xmlns="http://www.w3.org/2000/svg">
<g filter="url(#filter0_d_143_553)">
<rect x="26" y="38" width="249" height="56" rx="28" fill="#FF0000"/>
<path d="M67.6147 54.4C67.6147 53.3013 67.86 52.32 68.3507 51.456C68.852 50.5813 69.5294 49.904 70.3827 49.424C71.2467 48.9333 72.212 48.688 73.2787 48.688C74.5267 48.688 75.62 49.008 76.5587 49.648C77.4974 50.288 78.1534 51.1733 78.5267 52.304H75.9507C75.6947 51.7707 75.332 51.3707 74.8627 51.104C74.404 50.8373 73.8707 50.704 73.2627 50.704C72.612 50.704 72.0307 50.8587 71.5187 51.168C71.0174 51.4667 70.6227 51.8933 70.3347 52.448C70.0574 53.0027 69.9187 53.6533 69.9187 54.4C69.9187 55.136 70.0574 55.7867 70.3347 56.352C70.6227 56.9067 71.0174 57.3387 71.5187 57.648C72.0307 57.9467 72.612 58.096 73.2627 58.096C73.8707 58.096 74.404 57.9627 74.8627 57.696C75.332 57.4187 75.6947 57.0133 75.9507 56.48H78.5267C78.1534 57.6213 77.4974 58.512 76.5587 59.152C75.6307 59.7813 74.5374 60.096 73.2787 60.096C72.212 60.096 71.2467 59.856 70.3827 59.376C69.5294 58.8853 68.852 58.208 68.3507 57.344C67.86 56.48 67.6147 55.4987 67.6147 54.4ZM89.7039 48.832V60H87.4639V55.248H82.6799V60H80.4399V48.832H82.6799V53.424H87.4639V48.832H89.7039ZM98.7567 57.872H94.3087L93.5727 60H91.2207L95.2367 48.816H97.8447L101.861 60H99.4927L98.7567 57.872ZM98.1487 56.08L96.5327 51.408L94.9167 56.08H98.1487ZM110.962 48.832V50.64H107.986V60H105.746V50.64H102.77V48.832H110.962ZM120.313 48.832C121.486 48.832 122.515 49.0613 123.401 49.52C124.297 49.9787 124.985 50.6347 125.465 51.488C125.955 52.3307 126.201 53.312 126.201 54.432C126.201 55.552 125.955 56.5333 125.465 57.376C124.985 58.208 124.297 58.8533 123.401 59.312C122.515 59.7707 121.486 60 120.313 60H116.409V48.832H120.313ZM120.233 58.096C121.406 58.096 122.313 57.776 122.953 57.136C123.593 56.496 123.913 55.5947 123.913 54.432C123.913 53.2693 123.593 52.3627 122.953 51.712C122.313 51.0507 121.406 50.72 120.233 50.72H118.649V58.096H120.233ZM133.061 60.112C132.016 60.112 131.056 59.8667 130.181 59.376C129.307 58.8853 128.613 58.208 128.101 57.344C127.589 56.4693 127.333 55.4827 127.333 54.384C127.333 53.296 127.589 52.32 128.101 51.456C128.613 50.5813 129.307 49.8987 130.181 49.408C131.056 48.9173 132.016 48.672 133.061 48.672C134.117 48.672 135.077 48.9173 135.941 49.408C136.816 49.8987 137.504 50.5813 138.005 51.456C138.517 52.32 138.773 53.296 138.773 54.384C138.773 55.4827 138.517 56.4693 138.005 57.344C137.504 58.208 136.816 58.8853 135.941 59.376C135.067 59.8667 134.107 60.112 133.061 60.112ZM133.061 58.112C133.733 58.112 134.325 57.9627 134.837 57.664C135.349 57.3547 135.749 56.9173 136.037 56.352C136.325 55.7867 136.469 55.1307 136.469 54.384C136.469 53.6373 136.325 52.9867 136.037 52.432C135.749 51.8667 135.349 51.4347 134.837 51.136C134.325 50.8373 133.733 50.688 133.061 50.688C132.389 50.688 131.792 50.8373 131.269 51.136C130.757 51.4347 130.357 51.8667 130.069 52.432C129.781 52.9867 129.637 53.6373 129.637 54.384C129.637 55.1307 129.781 55.7867 130.069 56.352C130.357 56.9173 130.757 57.3547 131.269 57.664C131.792 57.9627 132.389 58.112 133.061 58.112ZM146.744 60L142.68 55.024V60H140.44V48.832H142.68V53.84L146.744 48.832H149.448L144.84 54.368L149.576 60H146.744ZM158.649 48.832V50.64H155.673V60H153.433V50.64H150.457V48.832H158.649ZM162.524 50.64V53.44H166.284V55.216H162.524V58.176H166.764V60H160.284V48.816H166.764V50.64H162.524ZM174.559 60L172.095 55.648H171.039V60H168.799V48.832H172.991C173.855 48.832 174.591 48.9867 175.199 49.296C175.807 49.5947 176.261 50.0053 176.559 50.528C176.869 51.04 177.023 51.616 177.023 52.256C177.023 52.992 176.81 53.6587 176.383 54.256C175.957 54.8427 175.322 55.248 174.479 55.472L177.151 60H174.559ZM171.039 53.968H172.911C173.519 53.968 173.973 53.824 174.271 53.536C174.57 53.2373 174.719 52.8267 174.719 52.304C174.719 51.792 174.57 51.3973 174.271 51.12C173.973 50.832 173.519 50.688 172.911 50.688H171.039V53.968ZM84.4209 84.112C83.6423 84.112 82.9383 83.9787 82.3089 83.712C81.6903 83.4453 81.1996 83.0613 80.8369 82.56C80.4743 82.0587 80.2876 81.4667 80.2769 80.784H82.6769C82.7089 81.2427 82.8689 81.6053 83.1569 81.872C83.4556 82.1387 83.8609 82.272 84.3729 82.272C84.8956 82.272 85.3063 82.1493 85.6049 81.904C85.9036 81.648 86.0529 81.3173 86.0529 80.912C86.0529 80.5813 85.9516 80.3093 85.7489 80.096C85.5463 79.8827 85.2903 79.7173 84.9809 79.6C84.6823 79.472 84.2663 79.3333 83.7329 79.184C83.0076 78.9707 82.4156 78.7627 81.9569 78.56C81.5089 78.3467 81.1196 78.032 80.7889 77.616C80.4689 77.1893 80.3089 76.624 80.3089 75.92C80.3089 75.2587 80.4743 74.6827 80.8049 74.192C81.1356 73.7013 81.5996 73.328 82.1969 73.072C82.7943 72.8053 83.4769 72.672 84.2449 72.672C85.3969 72.672 86.3303 72.9547 87.0449 73.52C87.7703 74.0747 88.1703 74.8533 88.2449 75.856H85.7809C85.7596 75.472 85.5943 75.1573 85.2849 74.912C84.9863 74.656 84.5863 74.528 84.0849 74.528C83.6476 74.528 83.2956 74.64 83.0289 74.864C82.7729 75.088 82.6449 75.4133 82.6449 75.84C82.6449 76.1387 82.7409 76.3893 82.9329 76.592C83.1356 76.784 83.3809 76.944 83.6689 77.072C83.9676 77.1893 84.3836 77.328 84.9169 77.488C85.6423 77.7013 86.2343 77.9147 86.6929 78.128C87.1516 78.3413 87.5463 78.6613 87.8769 79.088C88.2076 79.5147 88.3729 80.0747 88.3729 80.768C88.3729 81.3653 88.2183 81.92 87.9089 82.432C87.5996 82.944 87.1463 83.3547 86.5489 83.664C85.9516 83.9627 85.2423 84.112 84.4209 84.112ZM92.5549 74.64V77.44H96.3149V79.216H92.5549V82.176H96.7949V84H90.3149V72.816H96.7949V74.64H92.5549ZM105.135 84L101.071 79.024V84H98.8306V72.832H101.071V77.84L105.135 72.832H107.839L103.231 78.368L107.967 84H105.135ZM116.288 81.872H111.84L111.104 84H108.752L112.768 72.816H115.376L119.392 84H117.024L116.288 81.872ZM115.68 80.08L114.064 75.408L112.448 80.08H115.68ZM126.653 84L124.189 79.648H123.133V84H120.893V72.832H125.085C125.949 72.832 126.685 72.9867 127.293 73.296C127.901 73.5947 128.354 74.0053 128.653 74.528C128.962 75.04 129.117 75.616 129.117 76.256C129.117 76.992 128.904 77.6587 128.477 78.256C128.05 78.8427 127.416 79.248 126.573 79.472L129.245 84H126.653ZM123.133 77.968H125.005C125.613 77.968 126.066 77.824 126.365 77.536C126.664 77.2373 126.813 76.8267 126.813 76.304C126.813 75.792 126.664 75.3973 126.365 75.12C126.066 74.832 125.613 74.688 125.005 74.688H123.133V77.968ZM137.991 81.872H133.543L132.807 84H130.455L134.471 72.816H137.079L141.095 84H138.727L137.991 81.872ZM137.383 80.08L135.767 75.408L134.151 80.08H137.383ZM152.148 84H149.908L144.836 76.336V84H142.596V72.816H144.836L149.908 80.496V72.816H152.148V84ZM162.138 76.192C161.882 75.7227 161.53 75.3653 161.082 75.12C160.634 74.8747 160.111 74.752 159.514 74.752C158.852 74.752 158.266 74.9013 157.754 75.2C157.242 75.4987 156.842 75.9253 156.554 76.48C156.266 77.0347 156.122 77.6747 156.122 78.4C156.122 79.1467 156.266 79.7973 156.554 80.352C156.852 80.9067 157.263 81.3333 157.786 81.632C158.308 81.9307 158.916 82.08 159.61 82.08C160.463 82.08 161.162 81.856 161.706 81.408C162.25 80.9493 162.607 80.3147 162.778 79.504H158.938V77.792H164.986V79.744C164.836 80.5227 164.516 81.2427 164.026 81.904C163.535 82.5653 162.9 83.0987 162.122 83.504C161.354 83.8987 160.49 84.096 159.53 84.096C158.452 84.096 157.476 83.856 156.602 83.376C155.738 82.8853 155.055 82.208 154.554 81.344C154.063 80.48 153.818 79.4987 153.818 78.4C153.818 77.3013 154.063 76.32 154.554 75.456C155.055 74.5813 155.738 73.904 156.602 73.424C157.476 72.9333 158.447 72.688 159.514 72.688C160.772 72.688 161.866 72.9973 162.794 73.616C163.722 74.224 164.362 75.0827 164.714 76.192H162.138Z" fill="white"/>
<circle cx="235" cy="66" r="42" fill="white" stroke="#FF0000" stroke-width="4"/>
<path d="M212.074 66C212.075 61.128 213.744 56.3914 216.824 52.5191C219.904 48.6468 224.224 45.8535 229.119 44.5691C234.015 43.2846 239.214 43.5802 243.917 45.4104C248.621 47.2405 252.567 50.5038 255.149 54.6979C257.732 58.8921 258.807 63.7847 258.209 68.6228C257.611 73.4609 255.374 77.9763 251.841 81.4741C248.308 84.9719 243.676 87.2582 238.657 87.9813C233.638 88.7043 228.511 87.8239 224.064 85.4756L215.064 88.1067C214.663 88.2241 214.236 88.2345 213.829 88.1368C213.422 88.0392 213.05 87.8371 212.753 87.5522C212.456 87.2674 212.246 86.9104 212.144 86.5196C212.042 86.1288 212.053 85.7187 212.176 85.3333L214.916 76.68C213.049 73.4057 212.072 69.7327 212.074 66ZM225.963 63.7778C225.963 64.3672 226.207 64.9324 226.641 65.3491C227.075 65.7659 227.664 66 228.277 66H242.166C242.78 66 243.369 65.7659 243.803 65.3491C244.237 64.9324 244.481 64.3672 244.481 63.7778C244.481 63.1884 244.237 62.6232 243.803 62.2064C243.369 61.7897 242.78 61.5556 242.166 61.5556H228.277C227.664 61.5556 227.075 61.7897 226.641 62.2064C226.207 62.6232 225.963 63.1884 225.963 63.7778ZM228.277 70.4445C227.664 70.4445 227.075 70.6786 226.641 71.0953C226.207 71.5121 225.963 72.0773 225.963 72.6667C225.963 73.256 226.207 73.8213 226.641 74.238C227.075 74.6548 227.664 74.8889 228.277 74.8889H237.537C238.151 74.8889 238.739 74.6548 239.174 74.238C239.608 73.8213 239.852 73.256 239.852 72.6667C239.852 72.0773 239.608 71.5121 239.174 71.0953C238.739 70.6786 238.151 70.4445 237.537 70.4445H228.277Z" fill="#FF0000"/>
</g>
<defs>
<filter id="filter0_d_143_553" x="0" y="0" width="313" height="148" filterUnits="userSpaceOnUse" color-interpolation-filters="sRGB">
<feFlood flood-opacity="0" result="BackgroundImageFix"/>
<feColorMatrix in="SourceAlpha" type="matrix" values="0 0 0 0 0 0 0 0 0 0 0 0 0 0 0 0 0 0 127 0" result="hardAlpha"/>
<feOffset dx="4" dy="8"/>
<feGaussianBlur stdDeviation="15"/>
<feComposite in2="hardAlpha" operator="out"/>
<feColorMatrix type="matrix" values="0 0 0 0 0 0 0 0 0 0 0 0 0 0 0 0 0 0 0.5 0"/>
<feBlend mode="normal" in2="BackgroundImageFix" result="effect1_dropShadow_143_553"/>
<feBlend mode="normal" in="SourceGraphic" in2="effect1_dropShadow_143_553" result="shape"/>
</filter>
</defs>
</svg>
