<svg width="48" height="48" viewBox="0 0 48 48" fill="none" xmlns="http://www.w3.org/2000/svg">
<path d="M24.0028 33.1587C26.1929 32.3616 26.4048 27.4199 24.4763 22.1211C22.5477 16.8224 19.2088 13.1731 17.0187 13.9702C14.8286 14.7673 14.6167 19.709 16.5452 25.0078C18.4738 30.3065 21.8127 33.9558 24.0028 33.1587Z" stroke="white" stroke-linecap="round" stroke-linejoin="round"/>
<path d="M24.0051 33.1553C24.9901 31.043 21.6457 27.3988 16.5351 25.0157C11.4246 22.6326 6.48326 22.4131 5.49829 24.5254C4.51332 26.6377 7.85773 30.2819 12.9682 32.665C18.0788 35.048 23.0201 35.2675 24.0051 33.1553Z" stroke="white" stroke-linecap="round" stroke-linejoin="round"/>
<path d="M31.4567 25.0093C33.3853 19.7106 33.1733 14.7689 30.9832 13.9718C28.7932 13.1746 25.4543 16.8239 23.5257 22.1227C21.5971 27.4215 21.8091 32.3631 23.9992 33.1603C26.1893 33.9574 29.5281 30.3081 31.4567 25.0093Z" stroke="white" stroke-linecap="round" stroke-linejoin="round"/>
<path d="M35.0366 32.6604C40.1471 30.2773 43.4915 26.6331 42.5066 24.5208C41.5216 22.4086 36.5802 22.6281 31.4697 25.0112C26.3592 27.3942 23.0148 31.0384 23.9998 33.1507C24.9847 35.263 29.9261 35.0435 35.0366 32.6604Z" stroke="white" stroke-linecap="round" stroke-linejoin="round"/>
</svg>
