<svg width="194" height="48" viewBox="0 0 194 48" fill="none" xmlns="http://www.w3.org/2000/svg">
<path d="M44 18.9461C43.9256 19.6008 43.8301 20.2539 43.7815 20.9109C43.5254 24.3399 42.635 27.6055 41.3538 30.7971C39.9489 34.2814 38.551 37.7696 36.7404 41.078C36.6852 41.1921 36.605 41.2925 36.5057 41.3717C36.4063 41.451 36.2904 41.507 36.1663 41.5358C33.3564 42.3142 30.5004 42.8069 27.5824 42.9299C27.4153 42.9448 27.249 42.9682 27.0843 43H24.1084C23.4999 42.951 22.8883 42.9222 22.283 42.8482C19.2548 42.4813 16.2286 42.1053 13.2041 41.7202C13.119 41.707 13.0375 41.6768 12.9645 41.6313C12.8915 41.5858 12.8286 41.526 12.7796 41.4556C10.2149 36.7117 7.87253 31.8683 6.30548 26.694C5.68446 24.642 5.2091 22.5596 5.06735 20.4135C5.05247 20.312 5.02996 20.2119 5 20.1138V18.4012C5.56777 17.8337 6.13319 17.2647 6.70253 16.6995C11.7866 11.6505 17.5489 7.52557 23.9181 4.23353C24.038 4.16215 24.1539 4.08418 24.2651 4H24.3434C25.6222 4.63988 26.9348 5.22216 28.1737 5.92976C31.921 8.06892 35.3002 10.7149 38.5533 13.5266C40.2848 15.0243 41.9568 16.589 43.6531 18.1256C43.7752 18.2362 43.888 18.3592 44 18.479V18.9461ZM25.7851 42.4092C28.6451 42.4777 32.2131 42.009 35.7231 41.0671C36.0465 40.9807 36.2235 40.8165 36.3762 40.5347C38.2557 37.069 39.6567 33.3971 41.1361 29.7556C42.5348 26.3141 43.0939 22.7278 43.3641 19.0691C43.3774 18.8776 43.3124 18.6129 43.1808 18.4884C39.5925 15.0804 35.8719 11.8257 31.8254 8.9579C29.581 7.36677 27.2551 5.91108 24.7208 4.80725C24.4953 4.70916 24.3073 4.6718 24.063 4.79868C17.2952 8.32581 11.2251 12.7855 5.93976 18.2875C5.82513 18.3983 5.73516 18.5318 5.67567 18.6793C5.61618 18.8268 5.58849 18.985 5.5944 19.1438C5.5944 21.8995 6.2209 24.5447 7.04554 27.1478C8.5703 31.964 10.7568 36.4946 13.154 40.9309C13.2268 41.0671 13.4484 41.1722 13.6168 41.201C14.4258 41.3419 15.2395 41.4556 16.0523 41.5731C19.0236 42.0005 21.9995 42.3625 25.7851 42.4092Z" fill="#23435C"/>
<path d="M25.6677 33.2485C26.786 33.2617 27.6404 32.6592 27.8393 31.6566C27.9816 30.959 28.0501 30.2486 28.0437 29.5369C27.9889 26.0479 27.8871 22.5605 27.8229 19.0715C27.8088 18.2479 27.9795 17.4212 28.4141 16.7206C29.0156 15.7537 29.9224 15.1855 31.1175 15.0376C31.1035 15.1059 31.082 15.1725 31.0533 15.2361C30.1574 16.589 30.0125 18.1381 29.9937 19.6794C29.9483 23.416 29.9553 27.1525 29.9937 30.889C30.0062 32.1135 29.5097 32.9986 28.4431 33.4937C27.5926 33.8891 26.6607 34.111 25.6802 34.4372C25.6324 35.7807 26.1595 36.9204 27.613 37.5564L27.5441 37.6498H21.6087C22.2634 37.2847 22.7294 36.7624 23.0755 36.1248C23.3376 35.6582 23.4553 35.125 23.4138 34.5921C23.3966 34.3679 23.3355 34.2854 23.1006 34.2651C22.0966 34.1803 21.1545 33.8985 20.3314 33.2983C19.3713 32.5977 18.8811 31.6589 18.8873 30.4679C18.9069 26.887 18.9327 23.3062 18.9367 19.7254C18.9367 18.2206 18.7064 16.7548 17.9914 15.3996C17.9554 15.3318 17.9311 15.2579 17.8638 15.0975C18.7886 15.3723 19.6415 15.6082 20.2038 16.3874C20.8428 17.2733 21.12 18.279 21.1059 19.3533C21.0613 22.7379 20.9712 26.1257 20.9548 29.5073C20.9509 30.3254 21.102 31.1584 21.2931 31.9586C21.4842 32.7588 22.5328 33.3473 23.4162 33.2368C23.4162 33.0772 23.4162 32.9114 23.4162 32.7456C23.3916 27.1813 23.3674 21.6165 23.3433 16.0511C23.3433 15.4034 23.3501 14.7547 23.3637 14.105C23.3747 13.7802 23.3203 13.4566 23.2037 13.153C23.0871 12.8494 22.9106 12.572 22.6847 12.3372C22.4764 12.1106 22.2994 11.8561 22.0692 11.5665H26.8494C25.5878 12.6143 25.5533 14.0015 25.562 15.4034C25.598 21.1245 25.6327 26.845 25.6661 32.565C25.6685 32.7845 25.6677 33.0025 25.6677 33.2485Z" fill="#23435C"/>
<path d="M63.22 21.24C63.22 21.9467 63.0533 22.6133 62.72 23.24C62.3867 23.8667 61.8533 24.38 61.12 24.78C60.3867 25.1667 59.4467 25.36 58.3 25.36H55.78V31H53.5V17.1H58.3C59.3667 17.1 60.2667 17.2867 61 17.66C61.7467 18.02 62.3 18.5133 62.66 19.14C63.0333 19.7667 63.22 20.4667 63.22 21.24ZM58.3 23.5C59.1667 23.5 59.8133 23.3067 60.24 22.92C60.6667 22.52 60.88 21.96 60.88 21.24C60.88 19.72 60.02 18.96 58.3 18.96H55.78V23.5H58.3ZM75.3745 19.98V31H73.0945V29.7C72.7345 30.1533 72.2612 30.5133 71.6745 30.78C71.1012 31.0333 70.4879 31.16 69.8345 31.16C68.9679 31.16 68.1879 30.98 67.4945 30.62C66.8145 30.26 66.2745 29.7267 65.8745 29.02C65.4879 28.3133 65.2945 27.46 65.2945 26.46V19.98H67.5545V26.12C67.5545 27.1067 67.8012 27.8667 68.2945 28.4C68.7879 28.92 69.4612 29.18 70.3145 29.18C71.1679 29.18 71.8412 28.92 72.3345 28.4C72.8412 27.8667 73.0945 27.1067 73.0945 26.12V19.98H75.3745ZM81.0428 21.84V27.94C81.0428 28.3533 81.1361 28.6533 81.3228 28.84C81.5228 29.0133 81.8561 29.1 82.3228 29.1H83.7228V31H81.9228C80.8961 31 80.1095 30.76 79.5628 30.28C79.0161 29.8 78.7428 29.02 78.7428 27.94V21.84H77.4428V19.98H78.7428V17.24H81.0428V19.98H83.7228V21.84H81.0428ZM88.1042 21.58C88.4376 21.02 88.8776 20.5867 89.4242 20.28C89.9842 19.96 90.6442 19.8 91.4042 19.8V22.16H90.8242C89.9309 22.16 89.2509 22.3867 88.7842 22.84C88.3309 23.2933 88.1042 24.08 88.1042 25.2V31H85.8242V19.98H88.1042V21.58ZM92.74 25.44C92.74 24.3333 92.9667 23.3533 93.42 22.5C93.8867 21.6467 94.5133 20.9867 95.3 20.52C96.1 20.04 96.98 19.8 97.94 19.8C98.8067 19.8 99.56 19.9733 100.2 20.32C100.853 20.6533 101.373 21.0733 101.76 21.58V19.98H104.06V31H101.76V29.36C101.373 29.88 100.847 30.3133 100.18 30.66C99.5133 31.0067 98.7533 31.18 97.9 31.18C96.9533 31.18 96.0867 30.94 95.3 30.46C94.5133 29.9667 93.8867 29.2867 93.42 28.42C92.9667 27.54 92.74 26.5467 92.74 25.44ZM101.76 25.48C101.76 24.72 101.6 24.06 101.28 23.5C100.973 22.94 100.567 22.5133 100.06 22.22C99.5533 21.9267 99.0067 21.78 98.42 21.78C97.8333 21.78 97.2867 21.9267 96.78 22.22C96.2733 22.5 95.86 22.92 95.54 23.48C95.2333 24.0267 95.08 24.68 95.08 25.44C95.08 26.2 95.2333 26.8667 95.54 27.44C95.86 28.0133 96.2733 28.4533 96.78 28.76C97.3 29.0533 97.8467 29.2 98.42 29.2C99.0067 29.2 99.5533 29.0533 100.06 28.76C100.567 28.4667 100.973 28.04 101.28 27.48C101.6 26.9067 101.76 26.24 101.76 25.48ZM121.23 17.1V18.96H117.53V31H115.25V18.96H111.53V17.1H121.23ZM133.519 19.98V31H131.239V29.7C130.879 30.1533 130.406 30.5133 129.819 30.78C129.246 31.0333 128.632 31.16 127.979 31.16C127.112 31.16 126.332 30.98 125.639 30.62C124.959 30.26 124.419 29.7267 124.019 29.02C123.632 28.3133 123.439 27.46 123.439 26.46V19.98H125.699V26.12C125.699 27.1067 125.946 27.8667 126.439 28.4C126.932 28.92 127.606 29.18 128.459 29.18C129.312 29.18 129.986 28.92 130.479 28.4C130.986 27.8667 131.239 27.1067 131.239 26.12V19.98H133.519ZM142.087 19.8C142.954 19.8 143.727 19.98 144.407 20.34C145.101 20.7 145.641 21.2333 146.027 21.94C146.414 22.6467 146.607 23.5 146.607 24.5V31H144.347V24.84C144.347 23.8533 144.101 23.1 143.607 22.58C143.114 22.0467 142.441 21.78 141.587 21.78C140.734 21.78 140.054 22.0467 139.547 22.58C139.054 23.1 138.807 23.8533 138.807 24.84V31H136.527V19.98H138.807V21.24C139.181 20.7867 139.654 20.4333 140.227 20.18C140.814 19.9267 141.434 19.8 142.087 19.8ZM153.956 19.8C154.809 19.8 155.562 19.9733 156.216 20.32C156.882 20.6533 157.402 21.0733 157.776 21.58V19.98H160.076V31.18C160.076 32.1933 159.862 33.0933 159.436 33.88C159.009 34.68 158.389 35.3067 157.576 35.76C156.776 36.2133 155.816 36.44 154.696 36.44C153.202 36.44 151.962 36.0867 150.976 35.38C149.989 34.6867 149.429 33.74 149.296 32.54H151.556C151.729 33.1133 152.096 33.5733 152.656 33.92C153.229 34.28 153.909 34.46 154.696 34.46C155.616 34.46 156.356 34.18 156.916 33.62C157.489 33.06 157.776 32.2467 157.776 31.18V29.34C157.389 29.86 156.862 30.3 156.196 30.66C155.542 31.0067 154.796 31.18 153.956 31.18C152.996 31.18 152.116 30.94 151.316 30.46C150.529 29.9667 149.902 29.2867 149.436 28.42C148.982 27.54 148.756 26.5467 148.756 25.44C148.756 24.3333 148.982 23.3533 149.436 22.5C149.902 21.6467 150.529 20.9867 151.316 20.52C152.116 20.04 152.996 19.8 153.956 19.8ZM157.776 25.48C157.776 24.72 157.616 24.06 157.296 23.5C156.989 22.94 156.582 22.5133 156.076 22.22C155.569 21.9267 155.022 21.78 154.436 21.78C153.849 21.78 153.302 21.9267 152.796 22.22C152.289 22.5 151.876 22.92 151.556 23.48C151.249 24.0267 151.096 24.68 151.096 25.44C151.096 26.2 151.249 26.8667 151.556 27.44C151.876 28.0133 152.289 28.4533 152.796 28.76C153.316 29.0533 153.862 29.2 154.436 29.2C155.022 29.2 155.569 29.0533 156.076 28.76C156.582 28.4667 156.989 28.04 157.296 27.48C157.616 26.9067 157.776 26.24 157.776 25.48ZM167.51 19.8C168.364 19.8 169.117 19.9733 169.77 20.32C170.437 20.6533 170.957 21.0733 171.33 21.58V19.98H173.63V31.18C173.63 32.1933 173.417 33.0933 172.99 33.88C172.564 34.68 171.944 35.3067 171.13 35.76C170.33 36.2133 169.37 36.44 168.25 36.44C166.757 36.44 165.517 36.0867 164.53 35.38C163.544 34.6867 162.984 33.74 162.85 32.54H165.11C165.284 33.1133 165.65 33.5733 166.21 33.92C166.784 34.28 167.464 34.46 168.25 34.46C169.17 34.46 169.91 34.18 170.47 33.62C171.044 33.06 171.33 32.2467 171.33 31.18V29.34C170.944 29.86 170.417 30.3 169.75 30.66C169.097 31.0067 168.35 31.18 167.51 31.18C166.55 31.18 165.67 30.94 164.87 30.46C164.084 29.9667 163.457 29.2867 162.99 28.42C162.537 27.54 162.31 26.5467 162.31 25.44C162.31 24.3333 162.537 23.3533 162.99 22.5C163.457 21.6467 164.084 20.9867 164.87 20.52C165.67 20.04 166.55 19.8 167.51 19.8ZM171.33 25.48C171.33 24.72 171.17 24.06 170.85 23.5C170.544 22.94 170.137 22.5133 169.63 22.22C169.124 21.9267 168.577 21.78 167.99 21.78C167.404 21.78 166.857 21.9267 166.35 22.22C165.844 22.5 165.43 22.92 165.11 23.48C164.804 24.0267 164.65 24.68 164.65 25.44C164.65 26.2 164.804 26.8667 165.11 27.44C165.43 28.0133 165.844 28.4533 166.35 28.76C166.87 29.0533 167.417 29.2 167.99 29.2C168.577 29.2 169.124 29.0533 169.63 28.76C170.137 28.4667 170.544 28.04 170.85 27.48C171.17 26.9067 171.33 26.24 171.33 25.48ZM175.865 25.44C175.865 24.3333 176.092 23.3533 176.545 22.5C177.012 21.6467 177.638 20.9867 178.425 20.52C179.225 20.04 180.105 19.8 181.065 19.8C181.932 19.8 182.685 19.9733 183.325 20.32C183.978 20.6533 184.498 21.0733 184.885 21.58V19.98H187.185V31H184.885V29.36C184.498 29.88 183.972 30.3133 183.305 30.66C182.638 31.0067 181.878 31.18 181.025 31.18C180.078 31.18 179.212 30.94 178.425 30.46C177.638 29.9667 177.012 29.2867 176.545 28.42C176.092 27.54 175.865 26.5467 175.865 25.44ZM184.885 25.48C184.885 24.72 184.725 24.06 184.405 23.5C184.098 22.94 183.692 22.5133 183.185 22.22C182.678 21.9267 182.132 21.78 181.545 21.78C180.958 21.78 180.412 21.9267 179.905 22.22C179.398 22.5 178.985 22.92 178.665 23.48C178.358 24.0267 178.205 24.68 178.205 25.44C178.205 26.2 178.358 26.8667 178.665 27.44C178.985 28.0133 179.398 28.4533 179.905 28.76C180.425 29.0533 180.972 29.2 181.545 29.2C182.132 29.2 182.678 29.0533 183.185 28.76C183.692 28.4667 184.098 28.04 184.405 27.48C184.725 26.9067 184.885 26.24 184.885 25.48ZM192.46 16.2V31H190.18V16.2H192.46Z" fill="#23435C"/>
</svg>
